<?xml version="1.0" encoding="UTF-8"?>
<svg width="190px" height="87px" viewBox="0 0 190 87" version="1.1" xmlns="http://www.w3.org/2000/svg" xmlns:xlink="http://www.w3.org/1999/xlink">
    <!-- Generator: Sketch 52.5 (67469) - http://www.bohemiancoding.com/sketch -->
    <title>81lab</title>
    <desc>Created with Sketch.</desc>
    <g id="Happeo-Integrations" stroke="none" stroke-width="1" fill="none" fill-rule="evenodd">
        <g id="Artboard" transform="translate(-5.000000, -6.000000)" fill="#00DAFF">
            <g id="81lab" transform="translate(5.000000, 6.000000)">
                <path d="M43.7267606,45.1466667 C43.9007042,41.4933333 44.7704225,37.9066667 45.4260563,34.3066667 C46.0683099,30.7866667 46.7507042,27.28 47.4464789,23.7733333 C47.7809859,22.1066667 48.0887324,20.48 48.8514085,18.9466667 C49.6408451,17.36 50.5774648,17.0133333 52.0091549,16.1066667 C52.3704225,17.6666667 52.771831,18.8133333 52.2901408,20.4133333 C51.8084507,22.0133333 51.4070423,23.64 50.9788732,25.2533333 C50.1225352,28.48 49.4267606,31.6933333 48.9985915,35 C48.1422535,41.52 48.0084507,48.0933333 47.8077465,54.6533333 C47.7007042,58.1066667 47.6204225,61.56 47.5401408,65.0133333 C47.4732394,68.1333333 47.0985915,71.44 47.4866197,74.5466667 C47.6338028,75.72 47.9683099,76.8666667 48.6507042,77.84 C49.2528169,78.72 50.4971831,79.52 49.3330986,80.4666667 C47.1788732,82.2 45.1450704,79.36 44.4894366,77.6 C43.2584507,74.2933333 43.365493,70.7333333 43.3922535,67.2666667 C43.4056338,65.32 43.4056338,63.3733333 43.4056338,61.4266667 C43.4056338,60.5466667 43.4056338,59.6533333 43.3922535,58.7733333 C43.3922535,58.3333333 43.3922535,57.8933333 43.3922535,57.44" id="Path"></path>
                <path d="M21.8098592,40.52 C23.9373239,38.72 25.7704225,36.6133333 27.9246479,34.8266667 C29.021831,33.9066667 30.1457746,33.0133333 31.2429577,32.0933333 C31.7380282,31.68 32.4471831,31.24 32.7950704,30.6933333 C33.0894366,30.2266667 33.1028169,29.64 33.2901408,29.1333333 C32.1795775,29.16 31.4169014,29.1466667 30.3732394,29.6133333 C29.3028169,30.0933333 28.3394366,30.6533333 27.4161972,31.36 C25.5429577,32.7866667 23.6964789,34.2666667 21.8901408,35.7866667 C20.7661972,36.7333333 18.9330986,39.2533333 17.4612676,37.68 C15.8021127,35.92 14.4373239,33.7066667 12.9387324,31.8 C10.2359155,28.3466667 7.88098592,24.72 6.23521127,20.6533333 C5.43239437,18.6933333 4.79014085,16.6666667 4.32183099,14.6 C4.05422535,13.4 3.67957746,11.7333333 4.96408451,10.9866667 C6.47605634,10.1066667 9.01830986,10.5733333 10.6774648,10.5866667 C13.1260563,10.6 15.6415493,10.56 18.0767606,10.8533333 C20.4985915,11.1333333 22.893662,11.8266667 25.2485915,12.44 C26.3859155,12.7333333 27.5232394,13.0266667 28.6605634,13.3066667 C29.3830986,13.48 30.5739437,14.0133333 31.2429577,13.3866667 C31.7112676,12.9466667 31.3633803,11.9733333 30.9084507,11.5333333 C30.2528169,10.9066667 28.7809859,10.7866667 27.9380282,10.5466667 C25.6232394,9.86666667 23.321831,9.14666667 20.9802817,8.58666667 C18.6521127,8.02666667 16.2570423,7.56 13.8619718,7.52 C12.8183099,7.50666667 11.7746479,7.56 10.7443662,7.73333333 C9.55352113,7.93333333 8.48309859,8 7.06478873,8.08 C5.16478873,8.17333333 3.21126761,8.28 1.68591549,9.70666667 C0.481690141,10.84 0.388028169,12.5333333 0.561971831,14.0666667 C1.04366197,18.3333333 2.68943662,22.4 4.72323944,26.1466667 C6.97112676,30.2533333 9.72746479,33.9733333 12.6711268,37.6 C13.6746479,38.84 15.9894366,40.64 15.0528169,42.4 C14.0091549,44.3733333 12.3366197,46.12 11.1056338,48 C8.59014085,51.84 6.59647887,56.1333333 4.83028169,60.36 C2.98380282,64.8 1.96690141,69.36 1.19084507,74.08 C0.628873239,77.4666667 -0.896478873,82.64 2.24788732,85.24 C3.71971831,86.4666667 6.32887324,87 8.18873239,86.8666667 C10.4098592,86.7066667 12.8183099,86.3066667 14.9190141,85.5866667 C22.2246479,83.12 29.7042254,78 31.5105634,70.0666667 C33.584507,60.96 27.2021127,52.3733333 22.5457746,45.1333333 C21.6091549,43.6533333 20.0838028,41.9733333 21.8098592,40.52 Z M27.6838028,61.5066667 C28.2457746,63.1066667 28.6338028,64.8666667 28.8612676,66.5466667 C29.0619718,68.04 28.6070423,69.72 28.0852113,71.1333333 C27.1753521,73.5866667 25.5429577,75.6666667 23.5626761,77.36 C21.2077465,79.36 18.4380282,80.9733333 15.5077465,81.9733333 C12.8316901,82.88 9.27253521,83.7733333 6.42253521,83.3066667 C5.64647887,83.1866667 5.20492958,82.8666667 4.99084507,82.1066667 C4.61619718,80.7733333 4.76338028,79.16 4.6028169,77.7866667 C4.20140845,74.3733333 5.41901408,70.5866667 6.36901408,67.3333333 C8.37605634,60.4533333 11.7478873,53.96 15.5880282,47.9333333 C16.2570423,46.8933333 17.4612676,44.4 18.7992958,45.9333333 C20.0838028,47.4 21.1274648,49.2533333 22.1978873,50.8933333 C24.3922535,54.2133333 26.3591549,57.72 27.6838028,61.5066667 Z" id="Shape" fill-rule="nonzero"></path>
                <path d="M187.444366,34.5866667 C186.119718,31.0933333 182.105634,29.3466667 178.934507,31.7333333 C176.994366,33.1866667 175.402113,35.3066667 173.916901,37.1866667 C172.204225,39.3733333 171.01338,41.6666667 169.675352,44.08 C171.990141,33.92 175.696479,23.96 174.893662,13.36 C174.706338,10.88 174.184507,8.41333333 173.36831,6.06666667 C172.792958,4.41333333 172.097183,2.57333333 170.183803,2.16 C166.089437,1.29333333 163.85493,7.58666667 164.042254,10.6666667 C164.109155,11.8533333 164.095775,13.0533333 164.095775,14.2533333 C164.109155,15.6933333 163.89507,17.2533333 163.828169,18.5333333 C163.694366,21.04 163.948592,22.9333333 163.547183,25.4 C163.132394,28 163.266197,30.72 163.306338,33.3333333 C163.346479,35.9333333 163.466901,38.52 163.721127,41.1066667 C163.948592,43.3866667 164.082394,45.6 163.573944,47.8533333 C163.092254,50 162.088732,51.8533333 160.884507,53.68 C159.452817,55.84 158.114789,58.0666667 156.709859,60.2533333 C156.080986,61.24 155.438732,62.2133333 154.769718,63.1866667 C154.140845,64.1066667 153.485211,65.28 152.46831,65.8266667 C148.641549,67.8933333 146.848592,58.6 146.607746,56.4666667 C146.019014,51.3733333 146.514085,46.04 146.567606,40.92 C146.594366,38.32 146.674648,35.7066667 146.674648,33.1066667 C146.674648,31.6533333 146.28662,29.8 144.346479,30.3066667 C142.794366,30.7066667 143.222535,32.7866667 143.222535,33.9866667 C143.249296,36.56 143.262676,39.1333333 143.209155,41.7066667 C143.102113,46.7066667 142.834507,51.96 141.335915,56.7733333 C140.185211,60.4666667 137.803521,64.72 134.498592,66.9333333 C130.430986,69.64 129.21338,60.5866667 128.865493,58.24 C128.129577,53.2533333 128.838732,48.2933333 129.989437,43.4266667 C130.578169,40.9733333 131.247183,38.5333333 131.835915,36.08 C132.384507,33.8 132.906338,31.3866667 133.96338,29.2533333 C134.88662,27.4 136.30493,27.9466667 137.388732,29.4133333 C137.910563,30.1333333 138.20493,30.76 139.088028,31.08 C139.917606,31.3733333 140.787324,31.44 141.228873,30.56 C141.643662,29.7333333 141.028169,28.7466667 140.733803,27.9466667 C140.332394,26.8133333 139.890845,25.64 139.235211,24.6266667 C138.111268,22.8933333 136.157746,23 134.619014,24.1466667 C130.859155,26.9466667 129.106338,31.96 127.340141,36.1466667 C126.323239,38.5466667 126.202817,41 125.908451,43.5466667 C125.627465,46 125.239437,48.44 124.704225,50.8533333 C123.633803,55.64 121.854225,60.24 119.673239,64.6266667 C118.629577,66.7466667 117.438732,68.8133333 116.007042,70.7066667 C114.776056,72.3333333 113.330986,74.0933333 111.176761,74.4 C106.988732,75 103.643662,69.96 101.890845,66.84 C100.807042,64.92 99.9640845,62.8533333 99.3084507,60.7466667 C99.0007042,59.7466667 98.5859155,58.72 98.7464789,57.6533333 C98.9204225,56.5333333 99.4690141,55.44 99.9105634,54.4133333 C100.887324,52.1066667 101.930986,49.84 102.61338,47.44 C103.322535,44.96 103.964789,42.4666667 104.593662,39.9733333 C105.864789,34.9466667 107.082394,29.8266667 107.523944,24.64 C107.952113,19.6133333 108.072535,14.4133333 107.885211,9.37333333 C107.764789,6.32 107.216197,-0.586666667 102.640141,0.146666667 C101.235211,0.373333333 99.2415493,1.26666667 98.5591549,2.58666667 C98.0774648,3.52 97.8767606,4.73333333 97.5556338,5.73333333 C97.1408451,7.04 96.7260563,8.34666667 96.3380282,9.66666667 C93.528169,19.4933333 92.6450704,30.1066667 92.6450704,40.3333333 C92.6450704,42.92 92.765493,45.52 93.1,48.0933333 C93.434507,50.6266667 94.3309859,53.04 94.6922535,55.5466667 C95.0267606,57.9066667 93.9830986,59.5466667 92.671831,61.3866667 C91.2802817,63.32 89.9422535,65.2933333 88.4570423,67.1466667 C85.6070423,70.68 82.2753521,73.8266667 78.515493,76.4 C74.5816901,79.0933333 70.4204225,80.7466667 65.6302817,79.3066667 C63.7838028,78.7466667 62.9140845,77.2266667 63.556338,75.3866667 C63.8774648,74.4666667 64.7204225,73.6 64.3323944,72.5733333 C63.9577465,71.6 63.1415493,71.76 62.5126761,72.44 C60.0507042,75.16 59.5556338,80.3333333 63.6901408,81.56 C69.5507042,83.3066667 73.3373239,82.9733333 77.8598592,80.4533333 C81.6197183,78.36 84.9380282,75.6 87.8950704,72.4933333 C90.865493,69.3733333 93.2471831,65.7733333 96.1640845,62.6266667 C98.7598592,66.92 100.526056,71.6 104.553521,74.8666667 C106.453521,76.4133333 108.848592,77.7333333 111.377465,77.5466667 C113.879577,77.36 115.605634,75.68 117.090845,73.8133333 C118.870423,71.56 120.583099,69.2266667 121.867606,66.6666667 C122.429577,65.5466667 122.777465,64.5733333 123.272535,63.44 C123.754225,62.3333333 124.396479,61.16 125.119014,59.64 C125.346479,59.1466667 125.480282,58.9866667 125.85493,59.5066667 C126.028873,59.7466667 126.015493,60.2266667 126.082394,60.52 C126.242958,61.2533333 126.35,61.9866667 126.497183,62.72 C126.724648,63.8933333 127.112676,65.0266667 127.674648,66.0933333 C128.71831,68.0133333 130.417606,70.0533333 132.678873,70.4533333 C135.488732,70.9466667 137.669718,68.64 139.382394,66.7466667 C140.278873,65.7466667 141.08169,64.6533333 141.710563,63.4666667 C142.339437,62.28 142.941549,60.6133333 143.637324,59.48 C145.430282,61.7066667 145.457042,65.0933333 147.410563,67.2533333 C148.922535,68.9333333 151.157042,69.88 153.364789,69.0533333 C155.853521,68.1333333 157.338732,65.4933333 158.676761,63.3866667 C159.492958,62.1066667 160.269014,60.8 161.058451,59.5066667 C161.888028,58.1733333 162.583803,57.2533333 163.774648,56.2533333 C164.176056,58.3466667 163.86831,60.3066667 163.734507,62.4133333 C163.654225,63.7333333 163.306338,65.8 164.564085,66.72 C165.674648,67.5333333 167.507746,67.1466667 168.765493,66.9733333 C170.54507,66.72 172.284507,66.24 173.930282,65.5066667 C177.128169,64.08 180.071831,61.5866667 182.306338,58.9333333 C183.604225,57.3866667 185.089437,55.8533333 185.905634,53.9733333 C186.266901,53.1333333 186.480986,52.24 186.815493,51.4 C187.243662,50.3733333 187.805634,49.4133333 188.180282,48.36 C189.812676,43.8266667 189.116901,38.9866667 187.444366,34.5866667 Z M97.3415493,51.2133333 C96.6591549,49.7333333 96.6725352,48.36 96.5788732,46.72 C96.4852113,44.9733333 96.378169,43.2266667 96.284507,41.48 C96.1105634,37.9866667 96.043662,34.5066667 96.1774648,31.0133333 C96.3112676,27.6133333 96.5788732,24.2266667 96.8732394,20.84 C97.0204225,19.1066667 97.1676056,17.36 97.3014085,15.6266667 C97.3147887,15.4266667 97.4887324,14.2133333 97.5690141,13.8533333 C97.7964789,12.7866667 97.8767606,12.5466667 98.1309859,11.9466667 C98.5457746,10.9733333 98.8669014,9.48 99.2950704,8.52 C99.9640845,7 100.338732,5.25333333 102.13169,4.06666667 C102.787324,3.64 103.148592,3.4 103.670423,3.93333333 C104.245775,4.52 104.379577,5.65333333 104.51338,6.41333333 C104.888028,8.46666667 104.807746,10.6666667 104.847887,12.7466667 C105.048592,21.32 104.5,29.96 102.11831,38.24 C101.462676,40.5066667 100.726761,42.7466667 99.9774648,44.9866667 C99.2549296,47.1466667 98.7598592,49.4533333 97.3415493,51.2133333 Z M167.601408,38.5466667 C166.959155,38.4933333 167.159859,37.8266667 167.106338,37.24 C167.052817,36.7333333 167.012676,36.2133333 166.959155,35.7066667 C166.838732,34.52 166.73169,33.32 166.691549,32.1333333 C166.611268,29.7866667 166.73169,27.44 166.785211,25.0933333 C166.892254,20.3866667 167.012676,15.6666667 167.347183,10.96 C167.414085,9.97333333 167.628169,9.16 168.056338,8.28 C168.310563,7.77333333 169.126761,5.84 169.55493,5.84 C171.01338,5.86666667 171.200704,8.52 171.321127,9.44 C171.95,14.04 172.297887,18.28 171.294366,22.8666667 C170.719014,25.5333333 170.130282,28.1866667 169.541549,30.8533333 C169.260563,32.1466667 168.979577,33.4266667 168.685211,34.72 C168.430986,36.0133333 168.283803,37.4 167.601408,38.5466667 Z M185.477465,43.4 C184.674648,48.5866667 183.403521,53.3466667 180.205634,57.6133333 C179.590141,58.4266667 178.921127,59.2 178.078169,59.7866667 C177.047887,60.52 175.923944,61.0933333 174.840141,61.7333333 C173.502113,62.5066667 171.307746,64.0533333 169.58169,63.64 C167.922535,63.24 168.270423,60.3333333 168.350704,59.12 C168.524648,56.48 169.220423,53.88 170.143662,51.4133333 C172.097183,46.1733333 174.960563,41.3333333 178.185211,36.7866667 C179.269014,35.2533333 182.306338,31.9466667 183.992254,34.6666667 C185.437324,36.9866667 185.892254,40.72 185.477465,43.4 Z" id="Shape" fill-rule="nonzero"></path>
            </g>
        </g>
    </g>
</svg>